<?xml version="1.0" encoding="UTF-8"?>
<svg width="256" height="256" viewBox="0 0 256 256" xmlns="http://www.w3.org/2000/svg">
  <!-- Background -->
  <rect width="256" height="256" fill="#1e3a8a" rx="20"/>
  
  <!-- Main document icon base -->
  <rect x="48" y="32" width="120" height="150" fill="#ffffff" rx="8"/>
  <rect x="48" y="32" width="120" height="30" fill="#3b82f6" rx="8 8 0 0"/>
  
  <!-- Second document (showing merge concept) -->
  <rect x="88" y="72" width="120" height="150" fill="#ffffff" rx="8"/>
  <rect x="88" y="72" width="120" height="30" fill="#10b981" rx="8 8 0 0"/>
  
  <!-- Merge arrow -->
  <path d="M 60 160 L 80 140 L 75 144 L 95 144 L 95 156 L 75 156 L 80 160 Z" fill="#f59e0b"/>
  
  <!-- Excel/Grid lines in documents -->
  <line x1="58" y1="85" x2="158" y2="85" stroke="#e5e7eb" stroke-width="1"/>
  <line x1="58" y1="95" x2="158" y2="95" stroke="#e5e7eb" stroke-width="1"/>
  <line x1="58" y1="105" x2="158" y2="105" stroke="#e5e7eb" stroke-width="1"/>
  <line x1="68" y1="75" x2="68" y2="115" stroke="#e5e7eb" stroke-width="1"/>
  <line x1="88" y1="75" x2="88" y2="115" stroke="#e5e7eb" stroke-width="1"/>
  <line x1="108" y1="75" x2="108" y2="115" stroke="#e5e7eb" stroke-width="1"/>
  <line x1="128" y1="75" x2="128" y2="115" stroke="#e5e7eb" stroke-width="1"/>
  <line x1="148" y1="75" x2="148" y2="115" stroke="#e5e7eb" stroke-width="1"/>
  
  <line x1="98" y1="125" x2="198" y2="125" stroke="#e5e7eb" stroke-width="1"/>
  <line x1="98" y1="135" x2="198" y2="135" stroke="#e5e7eb" stroke-width="1"/>
  <line x1="98" y1="145" x2="198" y2="145" stroke="#e5e7eb" stroke-width="1"/>
  <line x1="108" y1="115" x2="108" y2="155" stroke="#e5e7eb" stroke-width="1"/>
  <line x1="128" y1="115" x2="128" y2="155" stroke="#e5e7eb" stroke-width="1"/>
  <line x1="148" y1="115" x2="148" y2="155" stroke="#e5e7eb" stroke-width="1"/>
  <line x1="168" y1="115" x2="168" y2="155" stroke="#e5e7eb" stroke-width="1"/>
  <line x1="188" y1="115" x2="188" y2="155" stroke="#e5e7eb" stroke-width="1"/>
  
  <!-- RV Text (representing RVTools) -->
  <text x="128" y="200" font-family="Arial, sans-serif" font-size="24" font-weight="bold" fill="#ffffff" text-anchor="middle">RV</text>
  <text x="128" y="220" font-family="Arial, sans-serif" font-size="12" fill="#94a3b8" text-anchor="middle">MERGE</text>
  
  <!-- VMware-style decoration -->
  <circle cx="40" cy="200" r="8" fill="#f59e0b"/>
  <circle cx="216" cy="200" r="8" fill="#10b981"/>
</svg>